<svg width="1274" height="567" viewBox="0 0 1274 567" fill="none" xmlns="http://www.w3.org/2000/svg">
<path d="M0.700003 567V-4.33922e-05H126V567H0.700003ZM219.647 567V93.1H134.247V-4.33922e-05H430.347V93.1H345.647V567H219.647ZM385.673 567L492.773 -4.33922e-05H635.573L741.273 567H625.773L606.873 447.3H523.573L503.973 567H385.673ZM534.773 372.4H594.973L564.873 151.2L534.773 372.4ZM756.52 567V-4.33922e-05H881.82V482.3H1012.02V567H756.52ZM1047.05 567V335.3L939.252 -4.33922e-05H1057.55L1111.45 179.2L1159.75 -4.33922e-05H1273.15L1167.45 335.3V567H1047.05Z" fill="black"/>
</svg>
